<?xml version="1.0"?>
<svg version="1.1" id="topsvg"
xmlns="http://www.w3.org/2000/svg" xmlns:xlink="http://www.w3.org/1999/xlink"
xmlns:cml="http://www.xml-cml.org/schema" x="0" y="0" width="200px" height="200px" viewBox="0 0 100 100">
<title>5a_E_s-cis_step14.pdb - Open Babel Depiction</title>
<rect x="0" y="0" width="100" height="100" fill="white"/>
<g transform="translate(0,0)">
<svg width="100" height="100" x="0" y="0" viewBox="0 0 318.693 241.554"
font-family="sans-serif" stroke="rgb(0,0,0)" stroke-width="2"  stroke-linecap="round">
<line x1="178.6" y1="114.6" x2="178.6" y2="141.6" stroke="rgb(0,0,0)"  stroke-width="2.0"/>
<polygon points="210.924744 78.042261 250.203073 86.598714 247.730937 94.207166 " stroke-width="2.000000" fill="rgb(0,0,0)"  stroke="rgb(0,0,0)" />
<line x1="251.9" y1="89.8" x2="257.5" y2="116.2" stroke="rgb(0,0,0)"  stroke-width="2.0"/>
<line x1="246.0" y1="91.0" x2="251.6" y2="117.4" stroke="rgb(0,0,0)"  stroke-width="2.0"/>
<line x1="249.0" y1="90.4" x2="269.0" y2="72.3" stroke="rgb(0,0,0)"  stroke-width="2.0"/>
<line x1="143.9" y1="161.6" x2="109.3" y2="141.6" stroke="rgb(0,0,0)"  stroke-width="2.0"/>
<line x1="142.4" y1="159.0" x2="177.1" y2="139.0" stroke="rgb(0,0,0)"  stroke-width="2.0"/>
<line x1="145.4" y1="164.2" x2="180.1" y2="144.2" stroke="rgb(0,0,0)"  stroke-width="2.0"/>
<line x1="143.9" y1="161.6" x2="143.9" y2="201.6" stroke="rgb(0,0,0)"  stroke-width="2.0"/>
<line x1="74.6" y1="161.6" x2="109.3" y2="141.6" stroke="rgb(0,0,0)"  stroke-width="2.0"/>
<line x1="76.2" y1="152.3" x2="100.5" y2="138.3" stroke="rgb(0,0,0)"  stroke-width="2.0"/>
<line x1="109.3" y1="141.6" x2="109.3" y2="101.6" stroke="rgb(0,0,0)"  stroke-width="2.0"/>
<line x1="109.3" y1="101.6" x2="74.6" y2="81.6" stroke="rgb(0,0,0)"  stroke-width="2.0"/>
<line x1="100.5" y1="104.8" x2="76.2" y2="90.8" stroke="rgb(0,0,0)"  stroke-width="2.0"/>
<line x1="74.6" y1="81.6" x2="40.0" y2="101.6" stroke="rgb(0,0,0)"  stroke-width="2.0"/>
<line x1="40.0" y1="101.6" x2="40.0" y2="141.6" stroke="rgb(0,0,0)"  stroke-width="2.0"/>
<line x1="47.2" y1="107.6" x2="47.2" y2="135.6" stroke="rgb(0,0,0)"  stroke-width="2.0"/>
<line x1="40.0" y1="141.6" x2="74.6" y2="161.6" stroke="rgb(0,0,0)"  stroke-width="2.0"/>
<line x1="210.9" y1="78.0" x2="189.1" y2="93.9" stroke="rgb(0,0,0)"  stroke-width="2.0"/>
<line x1="168.0" y1="93.9" x2="146.2" y2="78.0" stroke="rgb(0,0,0)"  stroke-width="2.0"/>
<line x1="146.2" y1="78.0" x2="158.6" y2="40.0" stroke="rgb(0,0,0)"  stroke-width="2.0"/>
<line x1="158.6" y1="40.0" x2="198.6" y2="40.0" stroke="rgb(0,0,0)"  stroke-width="2.0"/>
<line x1="198.6" y1="40.0" x2="210.9" y2="78.0" stroke="rgb(0,0,0)"  stroke-width="2.0"/>
<text x="172.564065" y="109.553671" fill="rgb(12,12,255)"  stroke="rgb(12,12,255)" stroke-width="1" font-size="16" >N</text>
<text x="251.283473" y="137.528844" fill="rgb(255,12,12)"  stroke="rgb(255,12,12)" stroke-width="1" font-size="16" >O</text>
<text x="272.692798" y="71.637716" fill="rgb(255,12,12)"  stroke="rgb(255,12,12)" stroke-width="1" font-size="16" >OH</text>
</svg>
</g>
<text font-size="18.000000" fill ="black" font-family="sans-serif"
x="10.000000" y="20.000000" >5a_E_s-cis_step14.pdb</text>
</svg>
